<svg xmlns="http://www.w3.org/2000/svg" fill="none" viewBox="0 0 136 126">
  <path stroke="#CFCFCF" stroke-linecap="round" stroke-linejoin="round" stroke-width=".85" d="M35.39 1.73v4.3m-2.15-2.15h4.3m79.43 83.56v4.3m-2.15-2.15h4.3"/>
  <path fill="#CFCFCF" d="M2.9 68.87a.98.98 0 1 0 0-1.96.98.98 0 0 0 0 1.96m83.44-62.7a.98.98 0 1 0 0-1.96.98.98 0 0 0 0 1.96"/>
  <path fill="#F2F2F2" d="M59.18 109.04c20.269 0 36.7-1.021 36.7-2.28s-16.431-2.28-36.7-2.28-36.7 1.021-36.7 2.28 16.431 2.28 36.7 2.28"/>
  <path fill="#fff" stroke="#BABABA" stroke-linecap="round" stroke-linejoin="round" d="M30.91 13.41h53.3a5 5 0 0 1 5 5v63.41a5 5 0 0 1-5 5H24.08a5 5 0 0 1-5-5V25.36z"/>
  <path fill="#D2D2D2" d="M88.97 44.31H34.01v43.12h54.96z"/>
  <path fill="#fff" stroke="#BABABA" stroke-linecap="round" stroke-linejoin="round" d="M19.08 25.36h9.69a2.15 2.15 0 0 0 2.14-2.15v-9.8zm69.62 5.18H34.34a3.83 3.83 0 0 0-3.83 3.83V46a3.83 3.83 0 0 0 3.83 3.83H88.7A3.83 3.83 0 0 0 92.53 46V34.37a3.83 3.83 0 0 0-3.83-3.83"/>
  <path fill="#D2D2D2" d="M41.07 43.55a3.34 3.34 0 1 0 0-6.68 3.34 3.34 0 0 0 0 6.68m10.5 0a3.34 3.34 0 1 0 0-6.68 3.34 3.34 0 0 0 0 6.68m10.49 0a3.34 3.34 0 1 0 0-6.68 3.34 3.34 0 0 0 0 6.68"/>
  <path fill="#fff" stroke="#BABABA" stroke-linecap="round" stroke-linejoin="round" d="M88.7 51.92H34.34a3.83 3.83 0 0 0-3.83 3.83v11.63a3.83 3.83 0 0 0 3.83 3.83H88.7a3.83 3.83 0 0 0 3.83-3.83V55.75a3.83 3.83 0 0 0-3.83-3.83"/>
  <path fill="#D2D2D2" d="M41.07 64.94a3.34 3.34 0 1 0 0-6.68 3.34 3.34 0 0 0 0 6.68m10.5 0a3.34 3.34 0 1 0 0-6.68 3.34 3.34 0 0 0 0 6.68m10.49 0a3.34 3.34 0 1 0 0-6.68 3.34 3.34 0 0 0 0 6.68"/>
  <path fill="#fff" stroke="#BABABA" stroke-linecap="round" stroke-linejoin="round" d="M88.7 73.31H34.34a3.83 3.83 0 0 0-3.83 3.83v11.63a3.83 3.83 0 0 0 3.83 3.83H88.7a3.83 3.83 0 0 0 3.83-3.83V77.14a3.83 3.83 0 0 0-3.83-3.83"/>
  <path fill="#D2D2D2" d="M41.07 86.32a3.34 3.34 0 1 0 0-6.68 3.34 3.34 0 0 0 0 6.68m10.5 0a3.34 3.34 0 1 0 0-6.68 3.34 3.34 0 0 0 0 6.68m10.49 0a3.34 3.34 0 1 0 0-6.68 3.34 3.34 0 0 0 0 6.68"/>
  <path fill="#fff" stroke="#BABABA" stroke-linecap="round" stroke-linejoin="round" d="M93.62 54.9c11.449 0 20.73-9.281 20.73-20.73s-9.281-20.73-20.73-20.73-20.73 9.281-20.73 20.73S82.17 54.9 93.62 54.9"/>
  <path stroke="#BABABA" stroke-linecap="round" stroke-linejoin="round" d="m108.34 49.21 5.52 5.52"/>
  <path fill="#fff" stroke="#BABABA" stroke-linecap="round" stroke-linejoin="round" d="m113.243 52.05-1.713 1.793a2.02 2.02 0 0 0 .064 2.856l14.891 14.235a2.02 2.02 0 0 0 2.856-.065l1.713-1.792a2.02 2.02 0 0 0-.064-2.856l-14.891-14.235a2.02 2.02 0 0 0-2.856.064"/>
</svg>
